<svg fill="#000000" height="200px" width="200px" version="1.1" id="Icons" xmlns="http://www.w3.org/2000/svg" xmlns:xlink="http://www.w3.org/1999/xlink" viewBox="0 0 32 32" xml:space="preserve"><g id="SVGRepo_bgCarrier" stroke-width="0"></g><g id="SVGRepo_tracerCarrier" stroke-linecap="round" stroke-linejoin="round"></g><g id="SVGRepo_iconCarrier"> <path d="M24,16c-4.4,0-8,3.6-8,8s3.6,8,8,8s8-3.6,8-8S28.4,16,24,16z M27.7,22.7l-4,4C23.5,26.9,23.3,27,23,27s-0.5-0.1-0.7-0.3 l-2-2c-0.4-0.4-0.4-1,0-1.4s1-0.4,1.4,0l1.3,1.3l3.3-3.3c0.4-0.4,1-0.4,1.4,0S28.1,22.3,27.7,22.7z"></path> <g> <path d="M25,4H7C4.7,4,2.8,5.5,2.2,7.6L16,16.8l13.8-9.2C29.2,5.5,27.3,4,25,4z"></path> <path d="M23.8,14c0.1,0,0.1,0,0.2,0c2.3,0,4.3,0.8,6,2V9.9L23.8,14z"></path> <path d="M15.4,18.8L2,9.9V23c0,2.8,2.2,5,5,5h7.8c-0.5-1.2-0.8-2.6-0.8-4C14,22.1,14.5,20.3,15.4,18.8 C15.5,18.8,15.4,18.8,15.4,18.8z"></path> </g> </g></svg>